<?xml version="1.0" standalone="no"?>
<!DOCTYPE svg PUBLIC "-//W3C//DTD SVG 20010904//EN"
 "http://www.w3.org/TR/2001/REC-SVG-20010904/DTD/svg10.dtd">
<svg version="1.0" xmlns="http://www.w3.org/2000/svg"
 width="833.000000pt" height="354.000000pt" viewBox="0 0 833.000000 354.000000"
 preserveAspectRatio="xMidYMid meet">

<g transform="translate(0.000000,354.000000) scale(0.100000,-0.100000)"
fill="#000000" stroke="none">
<path d="M1355 3021 c-11 -3 -45 -20 -75 -38 -286 -164 -675 -238 -1002 -188
-108 16 -129 12 -168 -30 l-25 -27 0 -536 c0 -408 3 -557 14 -619 l13 -83 110
0 110 0 -6 28 c-21 97 -26 216 -26 606 l0 439 102 -6 c284 -17 619 50 885 179
l92 44 85 -44 c258 -133 535 -193 839 -183 l157 5 -1 -441 c0 -312 -4 -467
-13 -527 -7 -47 -11 -88 -9 -92 2 -5 51 -8 107 -8 l104 0 6 32 c20 99 27 309
24 735 l-3 471 -25 27 c-40 43 -62 47 -159 28 -59 -11 -137 -17 -246 -17 -178
0 -313 21 -474 74 -85 27 -268 113 -321 150 -31 21 -68 30 -95 21z"/>
<path d="M4702 2720 c-241 -33 -412 -172 -489 -397 -35 -104 -43 -266 -19
-377 49 -220 205 -381 427 -442 45 -13 99 -18 184 -18 173 1 283 23 432 87
l53 22 0 308 0 307 -225 0 -225 0 0 -100 0 -100 120 0 120 0 0 -139 0 -138
-42 -16 c-68 -26 -134 -37 -217 -39 -97 -1 -132 7 -204 44 -72 39 -130 102
-169 184 -104 223 -24 486 179 586 55 27 80 33 154 36 121 6 210 -20 297 -85
l34 -26 79 79 79 78 -21 22 c-33 35 -158 93 -234 108 -95 19 -237 26 -313 16z"/>
<path d="M6662 2720 c-241 -33 -412 -172 -489 -397 -35 -104 -43 -266 -19
-377 49 -219 209 -385 425 -441 212 -55 436 -8 566 120 30 29 55 58 55 63 0 6
-37 37 -82 70 l-83 60 -46 -43 c-86 -81 -174 -109 -290 -93 -124 17 -233 100
-291 224 -132 283 34 605 321 622 103 6 173 -15 233 -68 26 -22 49 -40 52 -40
4 0 43 27 88 60 l82 60 -44 41 c-121 116 -290 164 -478 139z"/>
<path d="M3061 2118 c-139 -320 -256 -588 -258 -595 -4 -10 22 -13 114 -13
l120 0 53 135 53 135 256 0 256 0 54 -135 55 -135 123 0 123 0 -23 53 c-13 28
-128 296 -257 595 l-233 542 -92 0 -91 0 -253 -582z m432 75 c46 -123 82 -225
79 -228 -9 -8 -340 -6 -346 3 -7 12 168 462 176 454 4 -4 45 -107 91 -229z"/>
<path d="M5640 2105 l0 -595 105 0 105 0 0 595 0 595 -105 0 -105 0 0 -595z"/>
</g>
</svg>
