<?xml version="1.0" standalone="no"?>
<!DOCTYPE svg PUBLIC "-//W3C//DTD SVG 20010904//EN"
 "http://www.w3.org/TR/2001/REC-SVG-20010904/DTD/svg10.dtd">
<svg version="1.0" xmlns="http://www.w3.org/2000/svg"
 width="800.000000pt" height="469.000000pt" viewBox="0 0 800.000000 469.000000"
 preserveAspectRatio="xMidYMid meet">

<g transform="translate(0.000000,469.000000) scale(0.100000,-0.100000)"
fill="#000000" stroke="none">
<path d="M651 4098 c-204 -29 -353 -130 -431 -293 -66 -138 -90 -282 -90 -540
0 -516 125 -747 455 -837 76 -20 107 -22 612 -27 517 -6 532 -7 559 -27 15
-11 36 -31 46 -45 45 -60 47 -266 5 -351 -16 -31 -35 -49 -67 -65 l-44 -23
-773 0 -773 0 0 -320 0 -321 898 3 c886 3 898 4 974 25 122 35 186 70 263 148
82 81 125 162 155 288 53 225 53 567 0 792 -45 192 -136 316 -285 386 -133 62
-131 62 -715 68 -482 5 -538 8 -567 23 -74 41 -97 105 -91 258 5 121 24 172
80 205 32 19 53 20 786 23 l752 2 0 320 0 320 -842 -1 c-464 -1 -872 -6 -907
-11z"/>
<path d="M6425 4103 c-209 -24 -318 -50 -420 -97 -354 -165 -505 -565 -505
-1329 1 -551 75 -888 245 -1115 115 -152 267 -235 520 -284 104 -20 149 -21
838 -25 l727 -4 0 315 0 315 -667 3 c-656 3 -669 3 -725 25 -144 54 -206 155
-244 398 -24 154 -24 594 0 749 28 178 83 302 158 357 90 64 76 63 808 69
l665 5 3 313 2 312 -687 -1 c-379 -1 -701 -4 -718 -6z"/>
<path d="M130 535 l0 -465 470 0 470 0 0 100 0 100 -335 0 -336 0 3 88 3 87
328 0 327 0 0 88 0 87 -330 0 -330 0 0 90 0 90 335 0 336 0 -3 98 -3 97 -467
3 -468 2 0 -465z"/>
<path d="M1202 983 c8 -10 84 -101 168 -203 84 -102 161 -194 171 -205 18 -20
16 -24 -147 -225 -92 -113 -180 -222 -196 -242 l-30 -38 149 1 148 0 123 150
123 150 125 -151 126 -150 151 0 150 0 -20 23 c-11 12 -100 118 -197 235
l-177 213 57 72 c69 85 280 344 302 370 14 16 7 17 -134 17 l-149 0 -110 -135
c-60 -74 -113 -134 -117 -134 -3 -1 -57 60 -119 134 l-112 135 -150 0 c-142 0
-149 -1 -135 -17z"/>
<path d="M2370 535 l0 -465 135 0 135 0 0 145 0 145 223 0 c123 0 250 5 282
11 166 31 245 129 245 304 0 131 -43 217 -135 271 -77 44 -165 53 -542 54
l-343 0 0 -465z m665 255 c57 -13 85 -49 85 -110 0 -27 -5 -60 -11 -73 -21
-47 -47 -52 -263 -52 l-201 0 -3 109 c-1 61 0 116 2 123 4 10 44 13 178 13 95
0 191 -5 213 -10z"/>
<path d="M3540 535 l0 -465 470 0 470 0 0 100 0 100 -335 0 -335 0 0 90 0 91
330 -3 330 -3 0 88 0 87 -330 0 -330 0 0 90 0 90 335 0 336 0 -3 98 -3 97
-467 3 -468 2 0 -465z"/>
<path d="M4650 536 l0 -466 135 0 135 0 0 156 0 155 230 -3 c204 -3 231 -5
247 -21 15 -15 19 -39 21 -152 l4 -135 134 0 134 0 0 138 c0 75 -5 155 -11
176 -11 39 -51 88 -79 98 -11 3 -6 15 22 47 40 47 58 103 58 181 0 91 -19 140
-74 195 -85 85 -101 88 -563 92 l-393 5 0 -466z m727 238 c56 -41 56 -147 0
-188 -27 -20 -41 -21 -240 -21 l-212 0 -3 104 c-1 58 0 111 3 119 4 11 42 13
214 10 194 -3 212 -5 238 -24z"/>
<path d="M5760 900 l0 -100 180 0 180 0 0 -365 0 -365 135 0 135 0 0 365 0
365 180 0 180 0 0 100 0 100 -495 0 -495 0 0 -100z"/>
<path d="M7010 986 c-74 -15 -121 -46 -150 -98 -23 -39 -25 -54 -25 -163 0
-109 2 -124 25 -165 28 -49 73 -84 129 -100 20 -5 131 -10 246 -10 206 0 276
-7 299 -30 18 -18 13 -95 -8 -119 -19 -21 -26 -21 -353 -21 l-333 0 0 -106 0
-105 398 3 397 3 58 28 c44 22 63 39 85 75 26 45 27 54 27 172 0 118 -1 128
-27 172 -53 88 -131 107 -450 108 -192 0 -197 1 -212 22 -23 32 -20 94 4 118
19 19 33 20 340 20 l320 0 0 105 0 105 -357 -1 c-236 0 -377 -5 -413 -13z"/>
</g>
</svg>
